<?xml version="1.0" standalone="no"?>
<!DOCTYPE svg PUBLIC "-//W3C//DTD SVG 1.1//EN" "http://www.w3.org/Graphics/SVG/1.1/DTD/svg11.dtd">

<svg width="41" height="41" style="background:#fff" 
  xmlns="http://www.w3.org/2000/svg"
  xmlns:xlink="http://www.w3.org/1999/xlink">


<line x1="0" y1="0" x2="10" y2="0" style="stroke:black; stroke-width:1"/>
<line x1="0" y1="0" x2="0" y2="10" style="stroke:black; stroke-width:1"/>
<line x1="0" y1="10" x2="10" y2="10" style="stroke:black; stroke-width:1"/>
<line x1="10" y1="0" x2="20" y2="0" style="stroke:black; stroke-width:1"/>
<line x1="20" y1="0" x2="30" y2="0" style="stroke:black; stroke-width:1"/>
<line x1="30" y1="0" x2="40" y2="0" style="stroke:black; stroke-width:1"/>
<line x1="40" y1="0" x2="40" y2="10" style="stroke:black; stroke-width:1"/>
<line x1="0" y1="10" x2="0" y2="20" style="stroke:black; stroke-width:1"/>
<line x1="0" y1="20" x2="10" y2="20" style="stroke:black; stroke-width:1"/>
<line x1="20" y1="10" x2="20" y2="20" style="stroke:black; stroke-width:1"/>
<line x1="30" y1="10" x2="30" y2="20" style="stroke:black; stroke-width:1"/>
<line x1="40" y1="10" x2="40" y2="20" style="stroke:black; stroke-width:1"/>
<line x1="0" y1="20" x2="0" y2="30" style="stroke:black; stroke-width:1"/>
<line x1="0" y1="30" x2="10" y2="30" style="stroke:black; stroke-width:1"/>
<line x1="20" y1="20" x2="20" y2="30" style="stroke:black; stroke-width:1"/>
<line x1="10" y1="30" x2="20" y2="30" style="stroke:black; stroke-width:1"/>
<line x1="30" y1="20" x2="30" y2="30" style="stroke:black; stroke-width:1"/>
<line x1="20" y1="30" x2="30" y2="30" style="stroke:black; stroke-width:1"/>
<line x1="40" y1="20" x2="40" y2="30" style="stroke:black; stroke-width:1"/>
<line x1="0" y1="30" x2="0" y2="40" style="stroke:black; stroke-width:1"/>
<line x1="0" y1="40" x2="10" y2="40" style="stroke:black; stroke-width:1"/>
<line x1="10" y1="40" x2="20" y2="40" style="stroke:black; stroke-width:1"/>
<line x1="20" y1="40" x2="30" y2="40" style="stroke:black; stroke-width:1"/>
<line x1="40" y1="30" x2="40" y2="40" style="stroke:black; stroke-width:1"/>
<line x1="30" y1="40" x2="40" y2="40" style="stroke:black; stroke-width:1"/>

</svg>